<?xml version="1.0" encoding="utf-8"?>
<!-- Generator: Adobe Illustrator 16.0.0, SVG Export Plug-In . SVG Version: 6.00 Build 0)  -->
<!DOCTYPE svg PUBLIC "-//W3C//DTD SVG 1.1//EN" "http://www.w3.org/Graphics/SVG/1.1/DTD/svg11.dtd">
<svg version="1.1" id="first_section" xmlns="http://www.w3.org/2000/svg" xmlns:xlink="http://www.w3.org/1999/xlink" x="0px"
	 y="0px" width="1920px" height="1080px" viewBox="-305.75 -48.75 1920 1080" enable-background="new -305.75 -48.75 1920 1080"
	 xml:space="preserve">
<rect id="background" x="-305.75" y="-48.75" display="none" fill="#131819" width="1920" height="1080"/>
<g id="foreground">
	<g id="low_poly" display="none" opacity="0.3">
		
			<polygon display="inline" opacity="0.1" fill="none" stroke="#EEF3F5" stroke-miterlimit="10" enable-background="new    " points="
			1694.713,-119.325 1694.263,1098.332 -386.299,1098.331 -384.946,-118.601 		"/>
		
			<polygon display="inline" opacity="0.1" fill="none" stroke="#EEF3F5" stroke-miterlimit="10" enable-background="new    " points="
			1696.152,-119.586 1696.152,229.431 1180.299,-118.885 		"/>
		
			<polygon display="inline" opacity="0.1" fill="none" stroke="#EEF3F5" stroke-miterlimit="10" enable-background="new    " points="
			1178.862,-120.828 950.043,281.096 1316.964,281.096 		"/>
		
			<polygon display="inline" opacity="0.1" fill="none" stroke="#EEF3F5" stroke-miterlimit="10" enable-background="new    " points="
			1178.862,-118.885 1694.713,229.431 1316.964,283.035 		"/>
		
			<polygon display="inline" opacity="0.1" fill="none" stroke="#EEF3F5" stroke-miterlimit="10" enable-background="new    " points="
			1178.862,-118.885 769.72,-116.015 950.043,283.035 		"/>
		
			<polygon display="inline" opacity="0.1" fill="none" stroke="#EEF3F5" stroke-miterlimit="10" enable-background="new    " points="
			950.043,281.096 906.273,583.36 1316.964,281.096 		"/>
		
			<polygon display="inline" opacity="0.1" fill="none" stroke="#EEF3F5" stroke-miterlimit="10" enable-background="new    " points="
			907.113,585.305 1316.453,753.787 1316.453,281.845 		"/>
		
			<polygon display="inline" opacity="0.1" fill="none" stroke="#EEF3F5" stroke-miterlimit="10" enable-background="new    " points="
			1316.453,753.787 1695.559,229.431 1316.453,281.845 		"/>
		
			<polygon display="inline" opacity="0.1" fill="none" stroke="#EEF3F5" stroke-miterlimit="10" enable-background="new    " points="
			1315.609,753.787 1694.263,1100.19 1694.713,229.431 		"/>
		
			<polygon display="inline" opacity="0.1" fill="none" stroke="#EEF3F5" stroke-miterlimit="10" enable-background="new    " points="
			1314.932,751.93 1228.682,1098.331 1694.263,1098.332 		"/>
		
			<polygon display="inline" opacity="0.1" fill="none" stroke="#EEF3F5" stroke-miterlimit="10" enable-background="new    " points="
			906.273,585.305 1228.682,1100.19 1314.932,753.787 		"/>
		
			<polygon display="inline" opacity="0.1" fill="none" stroke="#EEF3F5" stroke-miterlimit="10" enable-background="new    " points="
			906.273,585.305 769.72,-116.015 950.043,283.035 		"/>
		
			<polygon display="inline" opacity="0.1" fill="none" stroke="#EEF3F5" stroke-miterlimit="10" enable-background="new    " points="
			906.273,583.443 769.719,1098.331 1227.603,1098.331 		"/>
		
			<polygon display="inline" opacity="0.1" fill="none" stroke="#EEF3F5" stroke-miterlimit="10" enable-background="new    " points="
			906.273,585.305 489.568,614.426 769.719,1100.19 		"/>
		
			<polygon display="inline" opacity="0.1" fill="none" stroke="#EEF3F5" stroke-miterlimit="10" enable-background="new    " points="
			906.273,585.305 769.72,-116.015 534.146,-119.586 		"/>
		
			<polygon display="inline" opacity="0.1" fill="none" stroke="#EEF3F5" stroke-miterlimit="10" enable-background="new    " points="
			906.273,585.305 489.568,614.426 534.146,-119.586 		"/>
		
			<polygon display="inline" opacity="0.1" fill="none" stroke="#EEF3F5" stroke-miterlimit="10" enable-background="new    " points="
			489.568,612.566 314.946,1098.331 769.971,1098.331 		"/>
		
			<polygon display="inline" opacity="0.1" fill="none" stroke="#EEF3F5" stroke-miterlimit="10" enable-background="new    " points="
			489.568,614.426 152.351,646.586 314.946,1100.19 		"/>
		
			<polygon display="inline" opacity="0.1" fill="none" stroke="#EEF3F5" stroke-miterlimit="10" enable-background="new    " points="
			489.568,614.426 197.03,303.54 152.351,646.586 		"/>
		
			<polygon display="inline" opacity="0.1" fill="none" stroke="#EEF3F5" stroke-miterlimit="10" enable-background="new    " points="
			489.568,614.426 534.146,-119.586 197.03,303.54 		"/>
		
			<polygon display="inline" opacity="0.1" fill="none" stroke="#EEF3F5" stroke-miterlimit="10" enable-background="new    " points="
			489.568,614.426 697.693,434.438 534.146,-119.586 		"/>
		
			<polygon display="inline" opacity="0.1" fill="none" stroke="#EEF3F5" stroke-miterlimit="10" enable-background="new    " points="
			697.693,434.438 906.273,585.305 489.568,614.426 		"/>
		
			<polygon display="inline" opacity="0.1" fill="none" stroke="#EEF3F5" stroke-miterlimit="10" enable-background="new    " points="
			697.693,434.438 906.273,585.305 534.146,-119.586 		"/>
		
			<polygon display="inline" opacity="0.1" fill="none" stroke="#EEF3F5" stroke-miterlimit="10" enable-background="new    " points="
			489.568,614.426 539.681,1017.956 314.946,1100.19 		"/>
		
			<polygon display="inline" opacity="0.1" fill="none" stroke="#EEF3F5" stroke-miterlimit="10" enable-background="new    " points="
			539.681,1016.889 769.971,1098.331 314.946,1098.331 		"/>
		
			<polygon display="inline" opacity="0.1" fill="none" stroke="#EEF3F5" stroke-miterlimit="10" enable-background="new    " points="
			539.681,1017.956 489.568,614.426 769.971,1100.19 		"/>
		
			<polygon display="inline" opacity="0.1" fill="none" stroke="#EEF3F5" stroke-miterlimit="10" enable-background="new    " points="
			197.03,303.54 -152.271,-116.015 534.146,-119.586 		"/>
		
			<polygon display="inline" opacity="0.1" fill="none" stroke="#EEF3F5" stroke-miterlimit="10" enable-background="new    " points="
			197.03,303.54 152.351,646.586 -152.271,585.244 		"/>
		
			<polygon display="inline" opacity="0.1" fill="none" stroke="#EEF3F5" stroke-miterlimit="10" enable-background="new    " points="
			197.03,303.54 -152.271,-116.015 -253.812,324.981 		"/>
		
			<polygon display="inline" opacity="0.1" fill="none" stroke="#EEF3F5" stroke-miterlimit="10" enable-background="new    " points="
			197.03,303.54 -152.271,585.244 -253.812,324.981 		"/>
		
			<polygon display="inline" opacity="0.1" fill="none" stroke="#EEF3F5" stroke-miterlimit="10" enable-background="new    " points="
			-253.812,324.981 -384.946,-117.203 -152.271,-116.015 		"/>
		
			<polygon display="inline" opacity="0.1" fill="none" stroke="#EEF3F5" stroke-miterlimit="10" enable-background="new    " points="
			-253.812,324.981 -384.946,-117.203 -386.299,475.062 		"/>
		
			<polygon display="inline" opacity="0.1" fill="none" stroke="#EEF3F5" stroke-miterlimit="10" enable-background="new    " points="
			-253.812,324.981 -152.271,585.244 -386.299,475.062 		"/>
		
			<polygon display="inline" opacity="0.1" fill="none" stroke="#EEF3F5" stroke-miterlimit="10" enable-background="new    " points="
			-385.836,474.814 -385.836,1098.999 -150.455,585.244 		"/>
		
			<polygon display="inline" opacity="0.1" fill="none" stroke="#EEF3F5" stroke-miterlimit="10" enable-background="new    " points="
			-387.653,1098.999 -5.97,889.484 -152.271,585.244 		"/>
		
			<polygon display="inline" opacity="0.1" fill="none" stroke="#EEF3F5" stroke-miterlimit="10" enable-background="new    " points="
			-5.97,889.484 152.351,646.586 -152.271,585.244 		"/>
		
			<polygon display="inline" opacity="0.1" fill="none" stroke="#EEF3F5" stroke-miterlimit="10" enable-background="new    " points="
			-5.97,889.484 314.946,1100.19 152.351,646.586 		"/>
		
			<polygon display="inline" opacity="0.1" fill="none" stroke="#EEF3F5" stroke-miterlimit="10" enable-background="new    " points="
			-5.97,889.484 -5.84,1039.438 -387.653,1098.999 		"/>
		
			<polygon display="inline" opacity="0.1" fill="none" stroke="#EEF3F5" stroke-miterlimit="10" enable-background="new    " points="
			-5.97,889.484 -5.84,1039.438 314.946,1100.19 		"/>
	</g>
	<g id="dots" opacity="0.6">
		<circle fill="#EEF3F5" cx="1315.609" cy="753.787" r="10"/>
		<circle fill="#EEF3F5" cx="950.043" cy="281.096" r="10"/>
		<circle fill="#EEF3F5" cx="697.693" cy="434.438" r="10"/>
		<circle fill="#EEF3F5" cx="197.03" cy="303.54" r="10"/>
		<circle fill="#EEF3F5" cx="-253.812" cy="324.981" r="10"/>
		<circle fill="#EEF3F5" cx="1316.453" cy="281.845" r="10"/>
		<circle fill="#EEF3F5" cx="-5.84" cy="889.484" r="10"/>
		<circle fill="#EEF3F5" cx="906.273" cy="583.36" r="10"/>
		<circle fill="#EEF3F5" cx="488.618" cy="614.426" r="10"/>
		<circle fill="#EEF3F5" cx="154.488" cy="646.586" r="10"/>
		<circle fill="#EEF3F5" cx="-150.455" cy="585.244" r="10"/>
	</g>
</g>
</svg>
