<?xml version="1.0" encoding="utf-8"?>
<!-- Generator: Adobe Illustrator 16.0.0, SVG Export Plug-In . SVG Version: 6.00 Build 0)  -->
<!DOCTYPE svg PUBLIC "-//W3C//DTD SVG 1.1//EN" "http://www.w3.org/Graphics/SVG/1.1/DTD/svg11.dtd">
<svg version="1.1" id="mockup" xmlns="http://www.w3.org/2000/svg" xmlns:xlink="http://www.w3.org/1999/xlink" x="0px" y="0px"
	 width="100px" height="100px" viewBox="-804.868 216.013 100 100" enable-background="new -804.868 216.013 100 100"
	 xml:space="preserve">
<g id="about">
	<g id="logo">
	</g>
</g>
<g id="skills">
	<g id="low_poly" display="none" opacity="0.3">
	</g>
	<g id="cordova">
	</g>
	<g id="laravel">
	</g>
	<g id="swift">
	</g>
	<g id="java_1_">
	</g>
	<g id="android">
	</g>
	<g id="git">
	</g>
	<g id="ps">
	</g>
	<g id="ai">
	</g>
	<g id="mysql_1_">
	</g>
	<g id="php">
	</g>
	<g id="angular">
	</g>
	<g id="js">
		<circle id="skills_16_" fill="#131819" cx="-754.868" cy="266.013" r="50"/>
		<g>
			<polygon fill="#EEF3F5" points="-725.402,249.457 -725.402,242.161 -747.414,242.161 -754.027,242.161 -754.027,249.373 
				-754.027,262.127 -754.027,266.765 -754.027,270.783 -731.016,270.783 -731.016,282.57 -754.027,282.57 -754.027,289.865 
				-731.453,289.865 -725.402,289.865 -725.402,281.835 -725.402,270.242 -725.402,264.446 -725.402,262.365 -746.729,262.365 
				-746.729,249.457 			"/>
			<polygon fill="#EEF3F5" points="-766.375,242.161 -766.375,283.692 -777.039,283.692 -777.039,276.396 -784.334,276.396 
				-784.334,283.542 -784.334,289.865 -777.039,289.865 -766.375,289.865 -757.956,289.865 -757.956,283.542 -757.956,242.161 			
				"/>
		</g>
	</g>
	<g id="jquery">
	</g>
	<g id="sass_2_">
	</g>
	<g id="html">
	</g>
	<g id="context">
		<g id="header">
		</g>
		<g id="sidetext">
		</g>
	</g>
</g>
<g id="intro">
</g>
</svg>
