<?xml version="1.0" encoding="utf-8"?>
<!-- Generator: Adobe Illustrator 16.0.0, SVG Export Plug-In . SVG Version: 6.00 Build 0)  -->
<!DOCTYPE svg PUBLIC "-//W3C//DTD SVG 1.1//EN" "http://www.w3.org/Graphics/SVG/1.1/DTD/svg11.dtd">
<svg version="1.1" id="mockup" xmlns="http://www.w3.org/2000/svg" xmlns:xlink="http://www.w3.org/1999/xlink" x="0px" y="0px"
	 width="100px" height="100px" viewBox="-677.877 481.018 100 100" enable-background="new -677.877 481.018 100 100"
	 xml:space="preserve">
<g id="about">
	<g id="logo">
	</g>
</g>
<g id="skills">
	<g id="low_poly" display="none" opacity="0.3">
	</g>
	<g id="cordova">
	</g>
	<g id="laravel">
	</g>
	<g id="swift">
		<g id="interest_2_">
			<circle fill="#131819" cx="-627.877" cy="531.017" r="50"/>
			<circle fill="#EEF3F5" cx="-627.877" cy="531.017" r="42.044"/>
		</g>
		<path fill-rule="evenodd" clip-rule="evenodd" fill="#131819" d="M-603.865,540.584c1.109-4.065,1.06-8.154,0.099-12.238
			c-1.479-6.287-4.663-11.637-9.032-16.319c-2.369-2.539-5.042-4.71-8.079-6.623c5.504,8.466,8.268,17.289,4.805,27.389
			c-10.057-6.423-19.044-13.893-27.47-22.076c4.723,6.83,9.847,13.338,15.431,19.508c-7.938-4.977-15.327-10.675-22.487-16.697
			c7.903,10.418,16.214,20.448,26.715,28.558c-0.53,0.298-0.914,0.527-1.311,0.729c-5.367,2.744-11.021,3.149-16.843,1.99
			c-5.242-1.042-10.011-3.194-14.508-6.434c0.178,0.301,0.243,0.435,0.329,0.557c6.892,9.767,16.038,15.872,28.098,17.146
			c4.881,0.514,9.542-0.354,13.97-2.539c1.369-0.677,2.834-1.23,4.316-1.59c4.308-1.047,7.5,0.392,9.693,4.206
			c0.095,0.162,0.212,0.312,0.319,0.472c0.086,0.005,0.167,0.005,0.253,0.011c0.125-0.73,0.345-1.463,0.356-2.192
			c0.079-4.721-1.585-8.853-4.389-12.571C-603.915,541.452-604.005,541.108-603.865,540.584z"/>
	</g>
	<g id="java_1_">
	</g>
	<g id="android">
	</g>
	<g id="git">
	</g>
	<g id="ps">
	</g>
	<g id="ai">
	</g>
	<g id="mysql_1_">
	</g>
	<g id="php">
	</g>
	<g id="angular">
	</g>
	<g id="js">
	</g>
	<g id="jquery">
	</g>
	<g id="sass_2_">
	</g>
	<g id="html">
	</g>
	<g id="context">
		<g id="header">
		</g>
		<g id="sidetext">
		</g>
	</g>
</g>
<g id="intro">
</g>
</svg>
