<?xml version="1.0" encoding="utf-8"?>
<!-- Generator: Adobe Illustrator 16.0.0, SVG Export Plug-In . SVG Version: 6.00 Build 0)  -->
<!DOCTYPE svg PUBLIC "-//W3C//DTD SVG 1.1//EN" "http://www.w3.org/Graphics/SVG/1.1/DTD/svg11.dtd">
<svg version="1.1" id="mockup" xmlns="http://www.w3.org/2000/svg" xmlns:xlink="http://www.w3.org/1999/xlink" x="0px" y="0px"
	 width="100px" height="100px" viewBox="-428.042 216.013 100 100" enable-background="new -428.042 216.013 100 100"
	 xml:space="preserve">
<g id="about">
	<g id="logo">
	</g>
</g>
<g id="skills">
	<g id="low_poly" display="none" opacity="0.3">
	</g>
	<g id="cordova">
	</g>
	<g id="laravel">
	</g>
	<g id="swift">
	</g>
	<g id="java_1_">
	</g>
	<g id="android">
	</g>
	<g id="git">
	</g>
	<g id="ps">
	</g>
	<g id="ai">
	</g>
	<g id="mysql_1_">
	</g>
	<g id="php">
	</g>
	<g id="angular">
	</g>
	<g id="js">
	</g>
	<g id="jquery">
	</g>
	<g id="sass_2_">
	</g>
	<g id="html">
		<circle id="skills_7_" fill="#131819" cx="-378.042" cy="266.013" r="50"/>
		<g>
			<rect x="-415.302" y="265.542" fill="#EEF3F5" width="74.52" height="1.732"/>
			<g>
				<polygon fill="#EEF3F5" points="-369.089,274.693 -369.089,271.229 -381.896,271.229 -385.264,271.229 -385.264,274.539 
					-385.264,280.192 -385.264,282.248 -385.264,283.938 -372.556,283.938 -372.556,289.134 -385.264,289.134 -385.264,292.601 
					-372.646,292.601 -369.089,292.601 -369.089,288.928 -369.089,283.788 -369.089,281.219 -369.089,280.47 -381.798,280.47 
					-381.798,274.693 				"/>
				<polygon fill="#EEF3F5" points="-349.447,274.693 -349.447,271.229 -362.367,271.229 -366.201,271.229 -366.201,274.539 
					-366.201,280.192 -366.201,282.248 -366.201,283.938 -352.914,283.938 -352.914,289.134 -366.201,289.134 -366.201,292.601 
					-353.117,292.601 -349.447,292.601 -349.447,288.928 -349.447,283.788 -349.447,281.219 -349.447,280.47 -362.156,280.47 
					-362.156,274.693 				"/>
				<polygon fill="#EEF3F5" points="-389.308,274.693 -389.308,271.229 -401.94,271.229 -405.482,271.229 -405.482,274.539 
					-405.482,289.441 -405.482,293.179 -401.94,293.179 -389.308,293.179 -389.308,289.712 -402.017,289.712 -402.017,274.693 				
					"/>
			</g>
			<g>
				<polygon fill="#EEF3F5" points="-399.128,238.847 -399.128,248.667 -410.103,248.667 -410.103,238.847 -413.569,238.847 
					-413.569,248.75 -413.569,252.349 -413.569,261.953 -410.103,261.953 -410.103,252.134 -399.128,252.134 -399.128,261.953 
					-395.084,261.953 -395.084,238.847 				"/>
				<polygon fill="#EEF3F5" points="-363.43,238.847 -365.815,238.847 -369.989,238.847 -372.374,238.847 -376.598,238.847 
					-376.598,242.506 -376.598,261.953 -372.554,261.953 -372.554,242.313 -370.243,242.313 -370.243,261.953 -366.2,261.953 
					-366.2,242.313 -363.312,242.313 -363.312,261.953 -359.267,261.953 -359.267,242.506 -359.267,238.847 				"/>
				<polygon fill="#EEF3F5" points="-379.486,238.847 -383.796,238.847 -387.706,238.847 -392.194,238.847 -392.194,242.313 
					-387.573,242.313 -387.573,261.953 -384.107,261.953 -384.107,242.313 -379.486,242.313 				"/>
				<polygon fill="#EEF3F5" points="-352.913,258.487 -352.913,238.847 -356.956,238.847 -356.956,261.953 -356.217,261.953 
					-353.239,261.953 -342.516,261.953 -342.516,258.487 				"/>
			</g>
		</g>
	</g>
	<g id="context">
		<g id="header">
		</g>
		<g id="sidetext">
		</g>
	</g>
</g>
<g id="intro">
</g>
</svg>
