<?xml version="1.0" encoding="utf-8"?>
<!-- Generator: Adobe Illustrator 16.0.0, SVG Export Plug-In . SVG Version: 6.00 Build 0)  -->
<!DOCTYPE svg PUBLIC "-//W3C//DTD SVG 1.1//EN" "http://www.w3.org/Graphics/SVG/1.1/DTD/svg11.dtd">
<svg version="1.1" id="mockup" xmlns="http://www.w3.org/2000/svg" xmlns:xlink="http://www.w3.org/1999/xlink" x="0px" y="0px"
	 width="100px" height="100px" viewBox="-942.339 481.018 100 100" enable-background="new -942.339 481.018 100 100"
	 xml:space="preserve">
<g id="about">
	<g id="logo">
	</g>
</g>
<g id="skills">
	<g id="low_poly" display="none" opacity="0.3">
	</g>
	<g id="cordova">
		<g id="interest_3_">
			<circle fill="#131819" cx="-892.339" cy="531.017" r="50"/>
			<circle fill="#EEF3F5" cx="-892.339" cy="531.017" r="42.044"/>
		</g>
		<path fill="#131819" d="M-865.413,562.433h-10.657l0.748-8.978h-5.238l-0.747,8.978h-22.065l-0.747-8.978h-5.238l0.748,8.978
			h-10.657l-5.984-38.896l14.959-23.935h35.902l14.959,23.935L-865.413,562.433z M-877.379,511.569h-9.618l0.642,4.49h-11.968
			l0.642-4.49h-9.617l-5.983,11.968l2.992,23.935h35.902l2.993-23.935L-877.379,511.569z M-882.616,539.527
			c-0.824,0-1.495-2.489-1.495-5.564c0-3.072,0.671-5.564,1.495-5.564c0.828,0,1.497,2.492,1.497,5.564
			C-881.119,537.038-881.788,539.527-882.616,539.527z M-901.502,539.99c-0.826,0-1.496-2.49-1.496-5.562
			c0-3.074,0.669-5.567,1.496-5.567c0.827,0,1.495,2.493,1.495,5.567C-900.007,537.5-900.676,539.99-901.502,539.99z"/>
	</g>
	<g id="laravel">
	</g>
	<g id="swift">
	</g>
	<g id="java_1_">
	</g>
	<g id="android">
	</g>
	<g id="git">
	</g>
	<g id="ps">
	</g>
	<g id="ai">
	</g>
	<g id="mysql_1_">
	</g>
	<g id="php">
	</g>
	<g id="angular">
	</g>
	<g id="js">
	</g>
	<g id="jquery">
	</g>
	<g id="sass_2_">
	</g>
	<g id="html">
	</g>
	<g id="context">
		<g id="header">
		</g>
		<g id="sidetext">
		</g>
	</g>
</g>
<g id="intro">
</g>
</svg>
