<?xml version="1.0" encoding="utf-8"?>
<!-- Generator: Adobe Illustrator 16.0.0, SVG Export Plug-In . SVG Version: 6.00 Build 0)  -->
<!DOCTYPE svg PUBLIC "-//W3C//DTD SVG 1.1//EN" "http://www.w3.org/Graphics/SVG/1.1/DTD/svg11.dtd">
<svg version="1.1" id="mockup" xmlns="http://www.w3.org/2000/svg" xmlns:xlink="http://www.w3.org/1999/xlink" x="0px" y="0px"
	 width="100px" height="100px" viewBox="-804.868 481.018 100 100" enable-background="new -804.868 481.018 100 100"
	 xml:space="preserve">
<g id="about">
	<g id="logo">
	</g>
</g>
<g id="skills">
	<g id="low_poly" display="none" opacity="0.3">
	</g>
	<g id="cordova">
	</g>
	<g id="laravel">
		<g id="interest_4_">
			<circle fill="#131819" cx="-754.868" cy="531.019" r="50"/>
			<circle fill="#EEF3F5" cx="-754.868" cy="531.019" r="42.044"/>
		</g>
		<path fill="#131819" d="M-719.713,529.771l-9.312-12.944l-12.722,2.121l7.345,12.104l-21.37,5.659l-17.372-32.402l-16.88,1.313
			l15.892,39.507l16.989-4.531l9.512,17.129l26.501-10.336l-9.026-14.175L-719.713,529.771z M-772.008,540.896l-14.6-33.271
			l11.911-1.108l16.14,30.636L-772.008,540.896z M-738.383,520.862l8.229-1.918l6.504,9.303l-8.362,2.313L-738.383,520.862z
			 M-725.508,545.225l-21.237,7.826l-7.301-13.287l21.104-6.202L-725.508,545.225z"/>
	</g>
	<g id="swift">
	</g>
	<g id="java_1_">
	</g>
	<g id="android">
	</g>
	<g id="git">
	</g>
	<g id="ps">
	</g>
	<g id="ai">
	</g>
	<g id="mysql_1_">
	</g>
	<g id="php">
	</g>
	<g id="angular">
	</g>
	<g id="js">
	</g>
	<g id="jquery">
	</g>
	<g id="sass_2_">
	</g>
	<g id="html">
	</g>
	<g id="context">
		<g id="header">
		</g>
		<g id="sidetext">
		</g>
	</g>
</g>
<g id="intro">
</g>
</svg>
