<?xml version="1.0" encoding="utf-8"?>
<!-- Generator: Adobe Illustrator 16.0.0, SVG Export Plug-In . SVG Version: 6.00 Build 0)  -->
<!DOCTYPE svg PUBLIC "-//W3C//DTD SVG 1.1//EN" "http://www.w3.org/Graphics/SVG/1.1/DTD/svg11.dtd">
<svg version="1.1" id="mockup" xmlns="http://www.w3.org/2000/svg" xmlns:xlink="http://www.w3.org/1999/xlink" x="0px" y="0px"
	 width="100px" height="100px" viewBox="-804.868 351.018 100 100" enable-background="new -804.868 351.018 100 100"
	 xml:space="preserve">
<g id="about">
	<g id="logo">
	</g>
</g>
<g id="skills">
	<g id="low_poly" display="none" opacity="0.3">
	</g>
	<g id="cordova">
	</g>
	<g id="laravel">
	</g>
	<g id="swift">
	</g>
	<g id="java_1_">
	</g>
	<g id="android">
	</g>
	<g id="git">
	</g>
	<g id="ps">
	</g>
	<g id="ai">
	</g>
	<g id="mysql_1_">
		<circle id="skills_2_" fill="#131819" cx="-754.868" cy="401.019" r="50"/>
		<g>
			<path fill="#EEF3F5" d="M-754.846,403.041c-9.601,0-17.979-1.926-22.479-4.787v9.896c4.502,2.865,12.88,4.505,22.479,4.505
				c9.603,0,17.983-1.927,22.484-4.79v-9.614C-736.862,401.115-745.243,403.041-754.846,403.041z"/>
			<path fill="#EEF3F5" d="M-754.846,390.381c-9.601,0-17.979-1.927-22.479-4.79v9.897c4.502,2.863,12.88,4.505,22.479,4.505
				c9.603,0,17.983-1.929,22.484-4.791v-9.612C-736.862,388.454-745.243,390.381-754.846,390.381z"/>
			<path fill="#EEF3F5" d="M-754.896,416.039c-9.601,0-17.978-1.927-22.479-4.79v9.897c4.502,2.862,12.88,4.505,22.479,4.505
				c9.603,0,17.983-1.929,22.483-4.791v-9.613C-736.912,414.112-745.292,416.039-754.896,416.039z"/>
			<ellipse fill="#EEF3F5" cx="-754.894" cy="381.921" rx="21.878" ry="5.54"/>
		</g>
	</g>
	<g id="php">
	</g>
	<g id="angular">
	</g>
	<g id="js">
	</g>
	<g id="jquery">
	</g>
	<g id="sass_2_">
	</g>
	<g id="html">
	</g>
	<g id="context">
		<g id="header">
		</g>
		<g id="sidetext">
		</g>
	</g>
</g>
<g id="intro">
</g>
</svg>
