<?xml version="1.0" encoding="utf-8"?>
<!-- Generator: Adobe Illustrator 16.0.0, SVG Export Plug-In . SVG Version: 6.00 Build 0)  -->
<!DOCTYPE svg PUBLIC "-//W3C//DTD SVG 1.1//EN" "http://www.w3.org/Graphics/SVG/1.1/DTD/svg11.dtd">
<svg version="1.1" id="mockup" xmlns="http://www.w3.org/2000/svg" xmlns:xlink="http://www.w3.org/1999/xlink" x="0px" y="0px"
	 width="100px" height="100px" viewBox="-942.339 351.018 100 100" enable-background="new -942.339 351.018 100 100"
	 xml:space="preserve">
<g id="about">
	<g id="logo">
	</g>
</g>
<g id="skills">
	<g id="low_poly" display="none" opacity="0.3">
	</g>
	<g id="cordova">
	</g>
	<g id="laravel">
	</g>
	<g id="swift">
	</g>
	<g id="java_1_">
	</g>
	<g id="android">
	</g>
	<g id="git">
	</g>
	<g id="ps">
	</g>
	<g id="ai">
	</g>
	<g id="mysql_1_">
	</g>
	<g id="php">
		<circle id="skills_8_" fill="#131819" cx="-892.339" cy="401.018" r="50"/>
		<g>
			<polygon fill="#EEF3F5" points="-923.486,377.984 -928.197,377.984 -928.197,382.906 -928.197,424.051 -923.486,424.051 
				-923.486,382.695 -910.922,382.695 -910.922,394.734 -906.211,394.734 -906.211,382.906 -906.211,377.984 -910.922,377.984 			
				"/>
			<polygon fill="#EEF3F5" points="-873.754,377.984 -878.467,377.984 -878.467,382.906 -878.467,424.051 -873.754,424.051 
				-873.754,382.695 -861.193,382.695 -861.193,394.734 -856.481,394.734 -856.481,382.906 -856.481,377.984 -861.193,377.984 			
				"/>
			<polygon fill="#EEF3F5" points="-885.272,397.352 -899.406,397.352 -899.406,377.984 -904.117,377.984 -904.117,424.051 
				-899.406,424.051 -899.406,404.682 -885.272,404.682 -885.272,424.051 -880.561,424.051 -880.561,377.984 -885.272,377.984 			
				"/>
		</g>
	</g>
	<g id="angular">
	</g>
	<g id="js">
	</g>
	<g id="jquery">
	</g>
	<g id="sass_2_">
	</g>
	<g id="html">
	</g>
	<g id="context">
		<g id="header">
		</g>
		<g id="sidetext">
		</g>
	</g>
</g>
<g id="intro">
</g>
</svg>
