<?xml version="1.0" encoding="utf-8"?>
<!-- Generator: Adobe Illustrator 16.0.0, SVG Export Plug-In . SVG Version: 6.00 Build 0)  -->
<!DOCTYPE svg PUBLIC "-//W3C//DTD SVG 1.1//EN" "http://www.w3.org/Graphics/SVG/1.1/DTD/svg11.dtd">
<svg version="1.1" id="cordova" xmlns="http://www.w3.org/2000/svg" xmlns:xlink="http://www.w3.org/1999/xlink" x="0px" y="0px"
	 width="100px" height="100px" viewBox="0 0 100 100" enable-background="new 0 0 100 100" xml:space="preserve">
<path id="cordova-logo" fill="#131819" d="M81.221,86.427H68.865l0.866-10.409h-6.073l-0.866,10.409H37.208l-0.866-10.409h-6.074
	l0.868,10.409H18.778l-6.938-45.1l17.346-27.753h41.629L88.16,41.327L81.221,86.427z M67.346,27.449H56.194l0.745,5.207H43.061
	l0.744-5.207H32.654l-6.938,13.878l3.469,27.752h41.629l3.471-27.752L67.346,27.449z M61.273,59.868
	c-0.955,0-1.733-2.888-1.733-6.452c0-3.562,0.778-6.452,1.733-6.452c0.961,0,1.736,2.89,1.736,6.452
	C63.01,56.98,62.234,59.868,61.273,59.868z M39.375,60.405c-0.958,0-1.734-2.888-1.734-6.45c0-3.564,0.776-6.454,1.734-6.454
	c0.958,0,1.734,2.89,1.734,6.454C41.108,57.518,40.333,60.405,39.375,60.405z"/>
</svg>
