<?xml version="1.0" encoding="utf-8"?>
<!-- Generator: Adobe Illustrator 16.0.0, SVG Export Plug-In . SVG Version: 6.00 Build 0)  -->
<!DOCTYPE svg PUBLIC "-//W3C//DTD SVG 1.1//EN" "http://www.w3.org/Graphics/SVG/1.1/DTD/svg11.dtd">
<svg version="1.1" id="java" xmlns="http://www.w3.org/2000/svg" xmlns:xlink="http://www.w3.org/1999/xlink" x="0px" y="0px"
	 width="100px" height="100px" viewBox="0 0 100 100" enable-background="new 0 0 100 100" xml:space="preserve">
<g id="java-logo">
	<path fill="#131819" d="M74.938,55.044c-0.446-1.336-0.978-2.62-1.533-3.79c-4.089,3.751-12.952,6.794-23.836,6.794
		c-10.884,0-20.98-1.942-25.068-5.693c-1.467,3.099-1.537,5.847-1.537,9.457c0,13.795,11.911,24.979,26.605,24.979
		c9.66,0,18.115-4.835,22.776-12.063c5.405-0.476,14.86-5.479,15.63-10.378C88.898,58.484,80.22,55.241,74.938,55.044z
		 M74.497,70.554c1.082-2.721,1.675-5.667,1.675-8.742c0-1.195-0.143-2.413-0.388-3.623c3.82,0.157,8.293,1.63,8.293,5.349
		C84.077,67.377,78.27,69.812,74.497,70.554z"/>
	<path fill="#131819" d="M55.415,9.209c0,0-29.228,9.2-22.153,22.175c7.072,12.975,17.884,17.064,13.076,21.939
		c-4.803,4.873,14.072-6.605,3.3-19.816C38.866,20.296,55.415,9.209,55.415,9.209z"/>
	<path fill="#131819" d="M59.201,20.681c0,0-9.514,4.536-7.211,10.934c2.303,6.396,5.82,8.411,4.258,10.815
		c-1.565,2.404,4.578-3.256,1.072-9.771C53.813,26.147,59.201,20.681,59.201,20.681z"/>
</g>
</svg>
