<?xml version="1.0" encoding="utf-8"?>
<!-- Generator: Adobe Illustrator 16.0.0, SVG Export Plug-In . SVG Version: 6.00 Build 0)  -->
<!DOCTYPE svg PUBLIC "-//W3C//DTD SVG 1.1//EN" "http://www.w3.org/Graphics/SVG/1.1/DTD/svg11.dtd">
<svg version="1.1" id="js" xmlns="http://www.w3.org/2000/svg" xmlns:xlink="http://www.w3.org/1999/xlink" x="0px" y="0px"
	 width="100px" height="100px" viewBox="0 0 100 100" enable-background="new 0 0 100 100" xml:space="preserve">
<g id="js-logo">
	<polygon id="js-logo-s" fill="#131819" points="84.5,30.616 84.5,22.073 58.729,22.073 50.985,22.073 50.985,30.518 50.985,45.451 
		50.985,50.881 50.985,55.586 75.917,55.586 75.917,69.386 50.985,69.386 50.985,77.927 77.416,77.927 84.5,77.927 84.5,68.525
		84.5,54.952 84.5,48.166 84.5,45.729 59.529,45.729 59.529,30.616 	"/>
	<polygon id="js-logo-j" fill="#131819" points="36.527,70.7 24.041,70.7 24.041,62.157 15.5,62.157 15.5,70.524 15.5,77.927 
		24.041,77.927 36.527,77.927 46.385,77.927 46.385,70.524 46.385,22.073 36.527,22.073 	"/>
</g>
</svg>
