<?xml version="1.0" encoding="utf-8"?>
<!-- Generator: Adobe Illustrator 16.0.0, SVG Export Plug-In . SVG Version: 6.00 Build 0)  -->
<!DOCTYPE svg PUBLIC "-//W3C//DTD SVG 1.1//EN" "http://www.w3.org/Graphics/SVG/1.1/DTD/svg11.dtd">
<svg version="1.1" id="laravel" xmlns="http://www.w3.org/2000/svg" xmlns:xlink="http://www.w3.org/1999/xlink" x="0px" y="0px"
	 width="100px" height="100px" viewBox="0 0 100 100" enable-background="new 0 0 100 100" xml:space="preserve">
<path id="laravel-logo" fill="#131819" d="M87.655,48.663l-9.975-13.864l-13.627,2.272l7.867,12.964l-22.889,6.063L30.425,21.392
	l-18.081,1.406l17.022,42.318l18.197-4.854l10.188,18.347l28.386-11.071l-9.667-15.184L87.655,48.663z M31.641,60.579L16.002,24.944
	l12.758-1.188l17.288,32.815L31.641,60.579z M67.657,39.122l8.814-2.054l6.966,9.964l-8.956,2.477L67.657,39.122z M81.448,65.218
	L58.701,73.6L50.88,59.368l22.606-6.645L81.448,65.218z"/>
</svg>
