<?xml version="1.0" encoding="utf-8"?>
<!-- Generator: Adobe Illustrator 16.0.0, SVG Export Plug-In . SVG Version: 6.00 Build 0)  -->
<!DOCTYPE svg PUBLIC "-//W3C//DTD SVG 1.1//EN" "http://www.w3.org/Graphics/SVG/1.1/DTD/svg11.dtd">
<svg version="1.1" id="mysql" xmlns="http://www.w3.org/2000/svg" xmlns:xlink="http://www.w3.org/1999/xlink" x="0px" y="0px"
	 width="100px" height="100px" viewBox="0 0 100 100" enable-background="new 0 0 100 100" xml:space="preserve">
<g id="mysql-logo">
	<path fill="#131819" d="M50.028,52.559c-12.134,0-22.722-2.434-28.411-6.05v12.505c5.69,3.621,16.279,5.694,28.411,5.694
		c12.137,0,22.729-2.436,28.417-6.055v-12.15C72.757,50.125,62.165,52.559,50.028,52.559z"/>
	<path fill="#131819" d="M50.028,36.558c-12.134,0-22.722-2.436-28.411-6.055v12.511c5.69,3.619,16.279,5.692,28.411,5.692
		c12.137,0,22.729-2.436,28.417-6.055V30.502C72.757,34.122,62.165,36.558,50.028,36.558z"/>
	<path fill="#131819" d="M49.965,68.986c-12.134,0-22.721-2.437-28.411-6.055v12.51c5.69,3.616,16.279,5.692,28.411,5.692
		c12.136,0,22.729-2.437,28.417-6.056V62.929C72.694,66.55,62.103,68.986,49.965,68.986z"/>
	<path fill="#131819" d="M22.317,25.864c0,3.871,12.379,7.003,27.652,7.003c15.27,0,27.65-3.133,27.65-7.003
		c0-3.863-12.38-6.998-27.65-6.998C34.697,18.866,22.317,22.001,22.317,25.864z"/>
</g>
</svg>
