<?xml version="1.0" encoding="utf-8"?>
<!-- Generator: Adobe Illustrator 16.0.0, SVG Export Plug-In . SVG Version: 6.00 Build 0)  -->
<!DOCTYPE svg PUBLIC "-//W3C//DTD SVG 1.1//EN" "http://www.w3.org/Graphics/SVG/1.1/DTD/svg11.dtd">
<svg version="1.1" id="php" xmlns="http://www.w3.org/2000/svg" xmlns:xlink="http://www.w3.org/1999/xlink" x="0px" y="0px"
	 width="100px" height="100px" viewBox="0 0 100 100" enable-background="new 0 0 100 100" xml:space="preserve">
<g id="php-logo">
	<polygon fill="#131819" points="15.472,24.466 10.25,24.466 10.25,29.922 10.25,75.533 15.472,75.533 15.472,29.688 29.4,29.688 
		29.4,43.035 34.622,43.035 34.622,29.922 34.622,24.466 29.4,24.466 	"/>
	<polygon fill="#131819" points="70.602,24.466 65.378,24.466 65.378,29.922 65.378,75.533 70.602,75.533 70.602,29.688 
		84.527,29.688 84.527,43.035 89.75,43.035 89.75,29.922 89.75,24.466 84.527,24.466 	"/>
	<polygon fill="#131819" points="57.834,45.937 42.167,45.937 42.167,24.466 36.943,24.466 36.943,75.533 42.167,75.533 
		42.167,54.062 57.834,54.062 57.834,75.533 63.057,75.533 63.057,24.466 57.834,24.466 	"/>
</g>
</svg>
