<?xml version="1.0" encoding="utf-8"?>
<!-- Generator: Adobe Illustrator 16.0.0, SVG Export Plug-In . SVG Version: 6.00 Build 0)  -->
<!DOCTYPE svg PUBLIC "-//W3C//DTD SVG 1.1//EN" "http://www.w3.org/Graphics/SVG/1.1/DTD/svg11.dtd">
<svg version="1.1" id="ps" xmlns="http://www.w3.org/2000/svg" xmlns:xlink="http://www.w3.org/1999/xlink" x="0px" y="0px"
	 width="100px" height="100px" viewBox="0 0 100 100" enable-background="new 0 0 100 100" xml:space="preserve">
<g id="ps-logo">
	<polygon fill="#131819" points="25.583,18.406 19.121,18.406 19.121,25.157 19.121,81.594 25.583,81.594 25.583,24.867 
		42.818,24.867 42.818,41.385 49.281,41.385 49.281,25.157 49.281,18.406 42.818,18.406 	"/>
	<polygon fill="#131819" points="80.879,53.59 80.879,47.844 59.714,47.844 53.591,47.844 53.591,52.973 53.591,61.978 
		53.591,65.25 53.591,67.954 74.415,67.954 74.415,75.85 53.591,75.85 53.591,81.594 74.449,81.594 80.879,81.594 80.879,75.894
		80.879,67.708 80.879,63.612 80.879,61.488 59.334,61.488 59.334,53.59 	"/>
</g>
</svg>
