<?xml version="1.0" encoding="utf-8"?>
<!-- Generator: Adobe Illustrator 16.0.0, SVG Export Plug-In . SVG Version: 6.00 Build 0)  -->
<!DOCTYPE svg PUBLIC "-//W3C//DTD SVG 1.1//EN" "http://www.w3.org/Graphics/SVG/1.1/DTD/svg11.dtd">
<svg version="1.1" id="bg1" xmlns="http://www.w3.org/2000/svg" xmlns:xlink="http://www.w3.org/1999/xlink" x="0px" y="0px"
	 width="1024px" height="768px" viewBox="0 960.089 1024 768" enable-background="new 0 960.089 1024 768" xml:space="preserve">
<g id="first_section_2_">
	
		<rect id="bg_1_" x="-0.5" y="959.359" display="none" fill="#131819" stroke="#000000" stroke-miterlimit="10" width="1024" height="768"/>
	<g id="text_2_" display="none">
		
			<text transform="matrix(1 0 0 1 94.001 1449.5322)" display="inline" fill="#EEF3F5" font-family="'BebasNeueBook'" font-size="70">Aspiring </text>
		
			<text transform="matrix(1 0 0 1 285.0967 1449.5322)" display="inline" fill="#9E2525" font-family="'BebasNeueBook'" font-size="70">front end web developer.</text>
		
			<text transform="matrix(1 0 0 1 240.6592 1393.8564)" display="inline" fill="#EEF3F5" font-family="'BebasNeueBook'" font-size="150">Hello, i’m</text>
		
			<text transform="matrix(1 0 0 1 667.6982 1393.8564)" display="inline" fill="#9E2525" font-family="'BebasNeueBook'" font-size="150"> Art</text>
	</g>
	<g id="menu_1_" display="none">
		<rect x="886.999" y="1025.86" display="inline" fill="#EEF3F5" width="48" height="6"/>
		<rect x="886.999" y="1014.86" display="inline" fill="#EEF3F5" width="48" height="6"/>
		<rect x="886.999" y="1037.86" display="inline" fill="#EEF3F5" width="48" height="6"/>
	</g>
	<g id="low_poly_2_">
		<g id="low_poly" display="none" opacity="0.3">
			
				<polygon display="inline" opacity="0.1" fill="none" stroke="#EEF3F5" stroke-miterlimit="10" enable-background="new    " points="
				-60.708,1774.07 -60.46,914.356 1084.755,914.358 1084.01,1773.559 			"/>
			
				<polygon display="inline" opacity="0.1" fill="none" stroke="#EEF3F5" stroke-miterlimit="10" enable-background="new    " points="
				-61.5,1774.254 -61.5,1527.834 222.443,1773.76 			"/>
			
				<polygon display="inline" opacity="0.1" fill="none" stroke="#EEF3F5" stroke-miterlimit="10" enable-background="new    " points="
				223.234,1775.131 349.186,1491.357 147.219,1491.357 			"/>
			
				<polygon display="inline" opacity="0.1" fill="none" stroke="#EEF3F5" stroke-miterlimit="10" enable-background="new    " points="
				223.234,1773.76 -60.708,1527.834 147.219,1489.987 			"/>
			
				<polygon display="inline" opacity="0.1" fill="none" stroke="#EEF3F5" stroke-miterlimit="10" enable-background="new    " points="
				223.234,1773.76 448.441,1771.731 349.186,1489.987 			"/>
			
				<polygon display="inline" opacity="0.1" fill="none" stroke="#EEF3F5" stroke-miterlimit="10" enable-background="new    " points="
				349.186,1491.357 373.277,1277.946 147.219,1491.357 			"/>
			
				<polygon display="inline" opacity="0.1" fill="none" stroke="#EEF3F5" stroke-miterlimit="10" enable-background="new    " points="
				372.814,1276.573 147.5,1157.618 147.5,1490.828 			"/>
			
				<polygon display="inline" opacity="0.1" fill="none" stroke="#EEF3F5" stroke-miterlimit="10" enable-background="new    " points="
				147.5,1157.618 -61.173,1527.834 147.5,1490.828 			"/>
			
				<polygon display="inline" opacity="0.1" fill="none" stroke="#EEF3F5" stroke-miterlimit="10" enable-background="new    " points="
				147.964,1157.618 -60.46,913.044 -60.708,1527.834 			"/>
			
				<polygon display="inline" opacity="0.1" fill="none" stroke="#EEF3F5" stroke-miterlimit="10" enable-background="new    " points="
				148.337,1158.931 195.813,914.356 -60.46,914.356 			"/>
			
				<polygon display="inline" opacity="0.1" fill="none" stroke="#EEF3F5" stroke-miterlimit="10" enable-background="new    " points="
				373.277,1276.573 195.813,913.044 148.337,1157.618 			"/>
			
				<polygon display="inline" opacity="0.1" fill="none" stroke="#EEF3F5" stroke-miterlimit="10" enable-background="new    " points="
				373.277,1276.573 448.441,1771.731 349.186,1489.987 			"/>
			
				<polygon display="inline" opacity="0.1" fill="none" stroke="#EEF3F5" stroke-miterlimit="10" enable-background="new    " points="
				373.277,1277.888 448.441,914.356 196.406,914.356 			"/>
			
				<polygon display="inline" opacity="0.1" fill="none" stroke="#EEF3F5" stroke-miterlimit="10" enable-background="new    " points="
				373.277,1276.573 602.646,1256.015 448.441,913.044 			"/>
			
				<polygon display="inline" opacity="0.1" fill="none" stroke="#EEF3F5" stroke-miterlimit="10" enable-background="new    " points="
				373.277,1276.573 448.441,1771.731 578.109,1774.254 			"/>
			
				<polygon display="inline" opacity="0.1" fill="none" stroke="#EEF3F5" stroke-miterlimit="10" enable-background="new    " points="
				373.277,1276.573 602.646,1256.015 578.109,1774.254 			"/>
			
				<polygon display="inline" opacity="0.1" fill="none" stroke="#EEF3F5" stroke-miterlimit="10" enable-background="new    " points="
				602.646,1257.325 698.765,914.358 448.303,914.356 			"/>
			
				<polygon display="inline" opacity="0.1" fill="none" stroke="#EEF3F5" stroke-miterlimit="10" enable-background="new    " points="
				602.646,1256.015 788.263,1233.308 698.765,913.044 			"/>
			
				<polygon display="inline" opacity="0.1" fill="none" stroke="#EEF3F5" stroke-miterlimit="10" enable-background="new    " points="
				602.646,1256.015 763.67,1475.511 788.263,1233.308 			"/>
			
				<polygon display="inline" opacity="0.1" fill="none" stroke="#EEF3F5" stroke-miterlimit="10" enable-background="new    " points="
				602.646,1256.015 578.109,1774.254 763.67,1475.511 			"/>
			
				<polygon display="inline" opacity="0.1" fill="none" stroke="#EEF3F5" stroke-miterlimit="10" enable-background="new    " points="
				602.646,1256.015 488.087,1383.092 578.109,1774.254 			"/>
			
				<polygon display="inline" opacity="0.1" fill="none" stroke="#EEF3F5" stroke-miterlimit="10" enable-background="new    " points="
				488.087,1383.092 373.277,1276.573 602.646,1256.015 			"/>
			
				<polygon display="inline" opacity="0.1" fill="none" stroke="#EEF3F5" stroke-miterlimit="10" enable-background="new    " points="
				488.087,1383.092 373.277,1276.573 578.109,1774.254 			"/>
			
				<polygon display="inline" opacity="0.1" fill="none" stroke="#EEF3F5" stroke-miterlimit="10" enable-background="new    " points="
				602.646,1256.015 575.063,971.106 698.765,913.044 			"/>
			
				<polygon display="inline" opacity="0.1" fill="none" stroke="#EEF3F5" stroke-miterlimit="10" enable-background="new    " points="
				575.063,971.858 448.303,914.356 698.765,914.358 			"/>
			
				<polygon display="inline" opacity="0.1" fill="none" stroke="#EEF3F5" stroke-miterlimit="10" enable-background="new    " points="
				575.063,971.106 602.646,1256.015 448.303,913.044 			"/>
			
				<polygon display="inline" opacity="0.1" fill="none" stroke="#EEF3F5" stroke-miterlimit="10" enable-background="new    " points="
				763.67,1475.511 955.938,1771.731 578.109,1774.254 			"/>
			
				<polygon display="inline" opacity="0.1" fill="none" stroke="#EEF3F5" stroke-miterlimit="10" enable-background="new    " points="
				763.67,1475.511 788.263,1233.308 955.938,1276.618 			"/>
			
				<polygon display="inline" opacity="0.1" fill="none" stroke="#EEF3F5" stroke-miterlimit="10" enable-background="new    " points="
				763.67,1475.511 955.938,1771.731 1011.829,1460.372 			"/>
			
				<polygon display="inline" opacity="0.1" fill="none" stroke="#EEF3F5" stroke-miterlimit="10" enable-background="new    " points="
				763.67,1475.511 955.938,1276.618 1011.829,1460.372 			"/>
			
				<polygon display="inline" opacity="0.1" fill="none" stroke="#EEF3F5" stroke-miterlimit="10" enable-background="new    " points="
				1011.829,1460.372 1084.01,1772.572 955.938,1771.731 			"/>
			
				<polygon display="inline" opacity="0.1" fill="none" stroke="#EEF3F5" stroke-miterlimit="10" enable-background="new    " points="
				1011.829,1460.372 1084.01,1772.572 1084.755,1354.409 			"/>
			
				<polygon display="inline" opacity="0.1" fill="none" stroke="#EEF3F5" stroke-miterlimit="10" enable-background="new    " points="
				1011.829,1460.372 955.938,1276.618 1084.755,1354.409 			"/>
			
				<polygon display="inline" opacity="0.1" fill="none" stroke="#EEF3F5" stroke-miterlimit="10" enable-background="new    " points="
				1084.5,1354.584 1084.5,913.886 954.938,1276.618 			"/>
			
				<polygon display="inline" opacity="0.1" fill="none" stroke="#EEF3F5" stroke-miterlimit="10" enable-background="new    " points="
				1085.5,913.886 875.408,1061.812 955.938,1276.618 			"/>
			
				<polygon display="inline" opacity="0.1" fill="none" stroke="#EEF3F5" stroke-miterlimit="10" enable-background="new    " points="
				875.408,1061.812 788.263,1233.308 955.938,1276.618 			"/>
			
				<polygon display="inline" opacity="0.1" fill="none" stroke="#EEF3F5" stroke-miterlimit="10" enable-background="new    " points="
				875.408,1061.812 698.765,913.044 788.263,1233.308 			"/>
			
				<polygon display="inline" opacity="0.1" fill="none" stroke="#EEF3F5" stroke-miterlimit="10" enable-background="new    " points="
				875.408,1061.812 875.337,955.938 1085.5,913.886 			"/>
			
				<polygon display="inline" opacity="0.1" fill="none" stroke="#EEF3F5" stroke-miterlimit="10" enable-background="new    " points="
				875.408,1061.812 875.337,955.938 698.765,913.044 			"/>
			
				<polygon display="inline" opacity="0.1" fill="none" stroke="#EEF3F5" stroke-miterlimit="10" enable-background="new    " points="
				875.337,955.938 698.765,913.044 1085.5,913.886 			"/>
		</g>
		<g id="dots">
			<ellipse fill="#EEF3F5" cx="763.902" cy="1475.18" rx="4.125" ry="4.242"/>
			<ellipse fill="#EEF3F5" cx="602.646" cy="1257.325" rx="4.125" ry="4.242"/>
			<ellipse fill="#EEF3F5" cx="372.815" cy="1276.618" rx="4.125" ry="4.242"/>
			<ellipse fill="#EEF3F5" cx="147.5" cy="1491.357" rx="4.125" ry="4.242"/>
			<ellipse fill="#EEF3F5" cx="349.185" cy="1489.987" rx="4.125" ry="4.242"/>
			<ellipse fill="#EEF3F5" cx="488.086" cy="1383.092" rx="4.125" ry="4.242"/>
			<ellipse fill="#EEF3F5" cx="788.263" cy="1233.308" rx="4.126" ry="4.242"/>
			<ellipse fill="#EEF3F5" cx="875.337" cy="1061.812" rx="4.126" ry="4.242"/>
			<ellipse fill="#EEF3F5" cx="575.063" cy="971.858" rx="4.125" ry="4.242"/>
			<ellipse fill="#EEF3F5" cx="147.5" cy="1157.618" rx="4.125" ry="4.242"/>
			<ellipse fill="#EEF3F5" cx="955.938" cy="1276.618" rx="4.125" ry="4.242"/>
			<ellipse fill="#EEF3F5" cx="1011.829" cy="1460.372" rx="4.126" ry="4.242"/>
		</g>
	</g>
</g>
<g id="palette">
	<rect x="-416.465" y="1119.304" fill="#131819" stroke="#000000" stroke-miterlimit="10" width="60" height="58"/>
	<rect x="-414.965" y="954.804" fill="#EEF3F5" width="60" height="58"/>
	<rect x="-414.965" y="1034.804" fill="#9E2525" width="60" height="58"/>
</g>
</svg>
